<?xml version="1.0" standalone="no"?>
<!DOCTYPE svg PUBLIC "-//W3C//DTD SVG 20010904//EN"
 "http://www.w3.org/TR/2001/REC-SVG-20010904/DTD/svg10.dtd">
<svg version="1.0" xmlns="http://www.w3.org/2000/svg"
 width="800.000000pt" height="800.000000pt" viewBox="0 0 800.000000 800.000000"
 preserveAspectRatio="xMidYMid meet">
<metadata>
Created by potrace 1.16, written by Peter Selinger 2001-2019
</metadata>
<g transform="translate(0.000000,800.000000) scale(0.100000,-0.100000)"
fill="#000000" stroke="none">
<path d="M2045 5156 c-150 -25 -292 -73 -392 -132 l-42 -24 20 -35 c12 -19 23
-35 25 -35 2 0 24 13 49 29 25 16 84 45 131 65 300 130 648 124 944 -15 102
-47 67 -16 -40 37 -95 46 -163 70 -270 95 -111 26 -318 33 -425 15z"/>
<path d="M2040 5004 c-97 -19 -199 -51 -281 -90 -85 -41 -97 -50 -110 -82 -8
-21 -15 -40 -17 -43 -2 -4 9 -10 24 -13 76 -20 144 -104 144 -179 l0 -37 56
45 c225 184 562 224 864 102 53 -22 60 -23 60 -8 0 27 -52 102 -106 152 -108
99 -258 149 -469 154 -77 2 -151 1 -165 -1z"/>
<path d="M2398 4625 c-3 -3 16 -76 42 -163 26 -86 55 -187 66 -224 10 -38 21
-68 25 -68 3 0 11 26 18 58 7 31 30 128 52 215 21 87 39 165 39 173 0 11 -23
14 -118 14 -65 0 -121 -2 -124 -5z"/>
<path d="M1863 4498 c3 -13 17 -63 30 -113 14 -49 39 -144 57 -210 41 -158 39
-154 50 -135 4 8 22 72 40 141 l32 127 -24 103 -24 104 -83 3 c-83 3 -83 3
-78 -20z"/>
<path d="M2210 4515 c0 -6 -77 -290 -136 -503 -25 -89 -44 -168 -42 -174 3 -8
26 -11 69 -9 35 1 65 3 66 4 1 1 32 109 70 240 37 130 71 237 74 237 3 0 11
-24 18 -52 6 -29 37 -138 69 -242 l57 -189 85 2 c47 1 86 3 86 4 5 5 174 667
174 679 0 5 -35 8 -79 8 -94 0 -81 23 -142 -247 -24 -105 -47 -189 -50 -185
-3 4 -23 66 -43 137 -20 72 -49 167 -63 213 l-25 82 -94 0 c-52 0 -94 -2 -94
-5z"/>
<path d="M1146 4422 c-3 -4 -14 -54 -25 -109 -82 -399 101 -812 464 -1049 71
-46 164 -94 182 -94 3 0 -33 25 -82 55 -173 109 -294 240 -384 415 -112 216
-139 493 -72 710 14 44 16 62 8 65 -34 10 -86 15 -91 7z"/>
<path d="M1635 4423 c-20 -3 -37 -14 -52 -37 -30 -46 -85 -71 -155 -71 -48 1
-65 6 -104 33 -25 18 -48 31 -51 28 -15 -15 -45 -165 -50 -251 -21 -380 197
-745 556 -928 349 -179 773 -150 1106 76 87 60 215 190 273 280 75 115 114
203 149 337 17 68 30 345 16 353 -6 4 -12 -16 -15 -51 -8 -84 -36 -186 -77
-282 -135 -313 -412 -536 -758 -610 -93 -20 -111 -21 -195 -10 -204 26 -362
102 -498 239 -142 143 -210 305 -210 495 0 124 21 215 73 319 25 48 40 86 33
85 -6 0 -24 -3 -41 -5z"/>
<path d="M5342 4080 c-72 -17 -106 -74 -100 -169 4 -74 31 -125 75 -142 45
-17 128 -11 157 12 37 29 52 59 35 70 -24 15 -44 10 -54 -13 -13 -30 -53 -48
-88 -41 -90 18 -90 227 -1 249 33 9 75 -12 89 -44 8 -18 15 -22 35 -17 34 9
35 11 16 40 -32 49 -98 72 -164 55z"/>
<path d="M3460 4065 c0 -8 14 -79 30 -157 17 -77 30 -143 30 -145 0 -2 17 -3
37 -1 l37 3 18 95 c39 208 35 206 68 23 l22 -123 36 0 37 0 33 148 c17 81 32
153 32 160 0 6 -11 12 -24 12 -27 0 -33 -18 -57 -177 -7 -46 -16 -83 -21 -83
-4 0 -8 8 -8 18 0 9 -9 68 -21 130 l-21 112 -38 0 -38 0 -21 -112 c-12 -62
-21 -121 -21 -130 0 -10 -4 -18 -8 -18 -4 0 -16 51 -26 113 -9 61 -19 120 -22
130 -7 21 -54 24 -54 2z"/>
<path d="M3909 4068 c-2 -7 -3 -79 -1 -160 l3 -148 115 0 c107 0 114 1 114 20
0 19 -7 20 -90 20 l-90 0 0 55 0 55 65 0 c58 0 65 2 65 20 0 18 -7 20 -65 20
l-65 0 0 45 0 45 83 0 c88 0 99 3 90 26 -7 19 -219 21 -224 2z"/>
<path d="M4210 3920 l0 -160 80 0 c119 0 170 28 170 93 0 25 -31 59 -65 71
-18 7 -17 9 12 21 58 24 57 96 -2 121 -20 8 -68 14 -115 14 l-80 0 0 -160z
m168 108 c18 -18 14 -56 -7 -68 -11 -5 -40 -10 -65 -10 l-46 0 0 45 0 45 53 0
c29 0 58 -5 65 -12z m0 -134 c12 -8 22 -26 22 -39 0 -34 -36 -55 -92 -55 l-48
0 0 55 0 55 48 0 c27 0 57 -7 70 -16z"/>
<path d="M4640 4060 c0 -17 7 -20 50 -20 l50 0 0 -140 0 -140 30 0 30 0 0 139
0 140 52 3 c40 2 52 7 54 21 2 15 -10 17 -132 17 -127 0 -134 -1 -134 -20z"/>
<path d="M4968 4063 c-3 -15 -2 -250 1 -290 1 -10 31 -13 116 -13 108 0 115 1
115 20 0 19 -7 20 -90 20 l-90 0 0 55 0 55 65 0 c58 0 65 2 65 20 0 18 -7 20
-65 20 l-65 0 0 45 0 45 89 0 c84 0 90 1 88 20 -1 19 -8 20 -113 20 -98 0
-112 -2 -116 -17z"/>
<path d="M5590 3920 l0 -160 25 0 c24 0 25 2 25 75 l0 76 78 -3 c86 -3 79 5
81 -95 1 -50 3 -53 26 -53 l25 0 0 160 0 160 -25 0 c-24 0 -25 -2 -25 -65 l0
-65 -80 0 -80 0 0 65 c0 63 -1 65 -25 65 l-25 0 0 -160z"/>
<path d="M2990 3985 c-6 -14 -10 -28 -10 -31 0 -3 -19 -37 -42 -77 -52 -87
-189 -226 -277 -281 -73 -46 -219 -103 -311 -121 -53 -11 -58 -13 -28 -14 110
-3 341 79 448 158 125 93 197 172 264 294 l37 67 -27 10 c-15 6 -31 13 -35 16
-5 3 -14 -7 -19 -21z"/>
<path d="M2451 3794 c0 -11 3 -14 6 -6 3 7 2 16 -1 19 -3 4 -6 -2 -5 -13z"/>
<path d="M2493 3803 c15 -2 37 -2 50 0 12 2 0 4 -28 4 -27 0 -38 -2 -22 -4z"/>
<path d="M2528 3783 c6 -2 18 -2 25 0 6 3 1 5 -13 5 -14 0 -19 -2 -12 -5z"/>
<path d="M2061 3754 c0 -11 3 -14 6 -6 3 7 2 16 -1 19 -3 4 -6 -2 -5 -13z"/>
<path d="M3860 3635 c-18 -22 -6 -42 36 -60 34 -14 36 -17 22 -31 -13 -13 -20
-14 -38 -4 -25 13 -42 4 -20 -10 23 -15 66 -12 80 5 18 22 6 42 -36 60 -30 12
-34 17 -24 30 9 11 17 12 32 4 23 -12 39 -2 18 11 -22 14 -56 12 -70 -5z"/>
<path d="M3986 3634 c-9 -8 -16 -31 -16 -49 0 -41 22 -65 59 -65 36 0 55 23
55 65 0 18 -6 40 -13 49 -17 20 -65 21 -85 0z m74 -49 c0 -43 -30 -64 -54 -39
-35 34 -5 105 35 84 13 -7 19 -21 19 -45z"/>
<path d="M4120 3585 l0 -65 40 0 c22 0 40 5 40 10 0 6 -13 10 -30 10 -30 0
-30 1 -30 55 0 30 -4 55 -10 55 -6 0 -10 -28 -10 -65z"/>
<path d="M4230 3597 c0 -59 12 -77 50 -77 42 0 53 15 58 74 4 47 2 56 -12 56
-13 0 -16 -11 -16 -54 0 -41 -4 -55 -16 -60 -28 -11 -44 13 -44 65 0 27 -4 49
-10 49 -5 0 -10 -24 -10 -53z"/>
<path d="M4360 3640 c0 -5 9 -10 20 -10 18 0 20 -7 20 -55 0 -30 5 -55 10 -55
6 0 10 25 10 55 0 48 3 55 19 55 11 0 23 5 26 10 4 6 -15 10 -49 10 -31 0 -56
-4 -56 -10z"/>
<path d="M4490 3585 c0 -51 3 -65 15 -65 12 0 15 14 15 65 0 51 -3 65 -15 65
-12 0 -15 -14 -15 -65z"/>
<path d="M4559 3634 c-7 -9 -13 -31 -13 -49 0 -42 19 -65 54 -65 53 0 82 77
42 113 -23 21 -66 22 -83 1z m77 -28 c12 -49 -21 -90 -52 -65 -14 12 -19 70
-7 82 3 4 17 7 29 7 17 0 25 -7 30 -24z"/>
<path d="M4690 3585 c0 -37 4 -65 10 -65 6 0 10 26 10 58 l1 57 30 -57 c40
-79 59 -77 59 7 0 75 -17 89 -22 18 l-3 -48 -25 48 c-15 30 -31 47 -42 47 -15
0 -18 -9 -18 -65z"/>
<path d="M4890 3585 c0 -37 4 -65 10 -65 6 0 10 24 11 53 1 56 2 55 19 -10 14
-57 36 -55 54 5 l15 47 0 -47 c1 -36 5 -48 16 -48 12 0 15 14 15 66 0 61 -1
65 -21 62 -17 -2 -26 -16 -38 -58 l-17 -55 -13 58 c-10 45 -16 57 -32 57 -17
0 -19 -7 -19 -65z"/>
<path d="M5074 3598 c-9 -29 -19 -59 -22 -65 -2 -7 1 -13 6 -13 6 0 14 9 17
20 7 24 55 28 55 6 0 -15 18 -31 26 -24 9 9 -39 128 -51 128 -7 0 -21 -24 -31
-52z m46 -15 c0 -7 -7 -13 -15 -13 -16 0 -19 9 -9 35 5 13 8 14 15 3 5 -7 9
-19 9 -25z"/>
<path d="M5190 3585 c0 -37 4 -65 10 -65 6 0 10 14 10 30 0 39 20 39 42 0 22
-39 44 -40 24 -2 -13 26 -13 31 1 44 12 12 13 20 4 37 -9 16 -21 21 -51 21
l-40 0 0 -65z m68 28 c-2 -10 -13 -19 -26 -21 -17 -3 -22 2 -22 17 0 16 6 21
26 21 19 0 25 -5 22 -17z"/>
<path d="M5305 3640 c3 -5 15 -10 26 -10 16 0 19 -7 19 -55 0 -30 5 -55 10
-55 6 0 10 25 10 55 0 48 2 55 20 55 11 0 20 5 20 10 0 6 -25 10 -56 10 -34 0
-53 -4 -49 -10z"/>
</g>
</svg>
