<?xml version="1.0" encoding="UTF-8" standalone="no" ?>
<!DOCTYPE svg PUBLIC "-//W3C//DTD SVG 1.1//EN" "http://www.w3.org/Graphics/SVG/1.1/DTD/svg11.dtd">
<svg xmlns="http://www.w3.org/2000/svg" xmlns:xlink="http://www.w3.org/1999/xlink" version="1.1" width="344.58574218750005" height="141.296" xml:space="preserve">
<desc>Created with Fabric.js 1.6.0-rc.1</desc>
<defs></defs>
<g style="stroke: none; stroke-width: 1; stroke-dasharray: none; stroke-linecap: butt; stroke-linejoin: miter; stroke-miterlimit: 10; fill: none; fill-rule: nonzero; opacity: 1;" transform="translate(10.000000000000007 10.000000000000007) scale(0.24 0.24)" >
  <circle cx="252.2" cy="252.2" r="252.2" style="stroke: none; stroke-width: 1; stroke-dasharray: none; stroke-linecap: butt; stroke-linejoin: miter; stroke-miterlimit: 10; fill: #0b2e3d; fill-rule: nonzero; opacity: 1;" transform="  matrix(1 0 0 1 0 0) "/>
  <circle cx="252.2" cy="256.6" r="144" style="stroke: none; stroke-width: 1; stroke-dasharray: none; stroke-linecap: butt; stroke-linejoin: miter; stroke-miterlimit: 10; fill: #00b5f7; fill-rule: nonzero; opacity: 1;" transform="  matrix(1 0 0 1 0 0) "/>
  <path d="M 252.2 411.1 c -85.2 0 -154.4 -69.3 -154.4 -154.4 S 167 102.2 252.2 102.2 s 154.4 69.3 154.4 154.4 S 337.4 411.1 252.2 411.1 z M 252.2 123.1 c -73.6 0 -133.5 59.9 -133.5 133.5 s 59.9 133.6 133.5 133.6 s 133.5 -59.9 133.5 -133.5 S 325.8 123.1 252.2 123.1 z" style="stroke: none; stroke-width: 1; stroke-dasharray: none; stroke-linecap: butt; stroke-linejoin: miter; stroke-miterlimit: 10; fill: #324A5E; fill-rule: nonzero; opacity: 1;" transform=" matrix(1 0 0 1 0 0) " stroke-linecap="round" />
  <path d="M 252.2 411.1 c -52.3 0 -93.2 -67.8 -93.2 -154.4 s 40.9 -154.5 93.2 -154.5 s 93.2 67.8 93.2 154.4 S 304.5 411.1 252.2 411.1 z M 252.2 123.1 c -39.2 0 -72.3 61.1 -72.3 133.5 s 33.1 133.6 72.3 133.6 s 72.3 -61.1 72.3 -133.5 S 291.4 123.1 252.2 123.1 z" style="stroke: none; stroke-width: 1; stroke-dasharray: none; stroke-linecap: butt; stroke-linejoin: miter; stroke-miterlimit: 10; fill: #324A5E; fill-rule: nonzero; opacity: 1;" transform=" matrix(1 0 0 1 0 0) " stroke-linecap="round" />
  <rect x="241.7" y="112.6" rx="0" ry="0" width="20.9" height="287.9" style="stroke: none; stroke-width: 1; stroke-dasharray: none; stroke-linecap: butt; stroke-linejoin: miter; stroke-miterlimit: 10; fill: #324A5E; fill-rule: nonzero; opacity: 1;" transform=" matrix(1 0 0 1 0 0) "/>
  <rect x="241.7" y="112.6" rx="0" ry="0" width="20.9" height="287.9" style="stroke: none; stroke-width: 1; stroke-dasharray: none; stroke-linecap: butt; stroke-linejoin: miter; stroke-miterlimit: 10; fill: #324A5E; fill-rule: nonzero; opacity: 1;" transform=" matrix(1 0 0 1 0 0) "/>
  <rect x="108.3" y="246.1" rx="0" ry="0" width="287.9" height="20.9" style="stroke: none; stroke-width: 1; stroke-dasharray: none; stroke-linecap: butt; stroke-linejoin: miter; stroke-miterlimit: 10; fill: #324A5E; fill-rule: nonzero; opacity: 1;" transform=" matrix(1 0 0 1 0 0) "/>
  <rect x="108.3" y="246.1" rx="0" ry="0" width="287.9" height="20.9" style="stroke: none; stroke-width: 1; stroke-dasharray: none; stroke-linecap: butt; stroke-linejoin: miter; stroke-miterlimit: 10; fill: #324A5E; fill-rule: nonzero; opacity: 1;" transform=" matrix(1 0 0 1 0 0) "/>
  <path d="M 268.9 130.4 c 0 71.2 -69.5 125.8 -69.5 125.8 s -69.5 -56.4 -69.5 -125.8 c 0 -38.4 31.1 -69.5 69.5 -69.5 S 268.9 92 268.9 130.4 z" style="stroke: none; stroke-width: 1; stroke-dasharray: none; stroke-linecap: butt; stroke-linejoin: miter; stroke-miterlimit: 10; fill: #ff5758; fill-rule: nonzero; opacity: 1;" transform=" matrix(1 0 0 1 0 0) " stroke-linecap="round" />
  <circle cx="199.5" cy="125.2" r="33.3" style="stroke: none; stroke-width: 1; stroke-dasharray: none; stroke-linecap: butt; stroke-linejoin: miter; stroke-miterlimit: 10; fill: #E6E9EE; fill-rule: nonzero; opacity: 1;" transform="  matrix(1 0 0 1 0 0) "/>
</g>
  <g transform="translate(231.77 58.98) scale(1.01 1.01)">
   <text font-family="ADAMCG PRO" font-size="40" font-weight="bold" style="stroke: none; stroke-width: 1; stroke-dasharray: none; stroke-linecap: butt; stroke-linejoin: miter; stroke-miterlimit: 10; fill: #e02020; fill-rule: nonzero; opacity: 1;" ><tspan x="-102.29" y="8.98" style="stroke: none; stroke-width: 0; stroke-dasharray: none; stroke-linecap: butt; stroke-linejoin: miter; stroke-miterlimit: 4; fill: #e02020; fill-rule: ; opacity: 1;">W</tspan><tspan x="-57.47" y="8.98" style="stroke: none; stroke-width: 0; stroke-dasharray: none; stroke-linecap: butt; stroke-linejoin: miter; stroke-miterlimit: 4; fill: #e02020; fill-rule: ; opacity: 1;">e</tspan><tspan x="-34.21" y="8.98" style="stroke: none; stroke-width: 0; stroke-dasharray: none; stroke-linecap: butt; stroke-linejoin: miter; stroke-miterlimit: 4; fill: #e02020; fill-rule: ; opacity: 1;">b</tspan><tspan x="-10.69" y="8.98" style="stroke: none; stroke-width: 0; stroke-dasharray: none; stroke-linecap: butt; stroke-linejoin: miter; stroke-miterlimit: 4; fill: #e02020; fill-rule: ; opacity: 1;"> </tspan><tspan x="1.3" y="8.98" style="stroke: none; stroke-width: 0; stroke-dasharray: none; stroke-linecap: butt; stroke-linejoin: miter; stroke-miterlimit: 4; fill: #e02020; fill-rule: ; opacity: 1;">T</tspan><tspan x="24.66" y="8.98" style="stroke: none; stroke-width: 0; stroke-dasharray: none; stroke-linecap: butt; stroke-linejoin: miter; stroke-miterlimit: 4; fill: #e02020; fill-rule: ; opacity: 1;">e</tspan><tspan x="47.92" y="8.98" style="stroke: none; stroke-width: 0; stroke-dasharray: none; stroke-linecap: butt; stroke-linejoin: miter; stroke-miterlimit: 4; fill: #e02020; fill-rule: ; opacity: 1;">c</tspan><tspan x="74.99" y="8.98" style="stroke: none; stroke-width: 0; stroke-dasharray: none; stroke-linecap: butt; stroke-linejoin: miter; stroke-miterlimit: 4; fill: #e02020; fill-rule: ; opacity: 1;">h</tspan></text>
 </g>
  <g transform="translate(240.92 89.69) scale(0.55 0.4)">
   <text font-family="ADAMCG PRO" font-size="40" font-weight="bold" style="stroke: none; stroke-width: 1; stroke-dasharray: none; stroke-linecap: butt; stroke-linejoin: miter; stroke-miterlimit: 10; fill: #060421; fill-rule: nonzero; opacity: 1;" ><tspan x="-161.8" y="8.98" style="stroke: none; stroke-width: 0; stroke-dasharray: none; stroke-linecap: butt; stroke-linejoin: miter; stroke-miterlimit: 4; fill: #060421; fill-rule: ; opacity: 1;">s</tspan><tspan x="-140.68" y="8.98" style="stroke: none; stroke-width: 0; stroke-dasharray: none; stroke-linecap: butt; stroke-linejoin: miter; stroke-miterlimit: 4; fill: #060421; fill-rule: ; opacity: 1;">o</tspan><tspan x="-106.74" y="8.98" style="stroke: none; stroke-width: 0; stroke-dasharray: none; stroke-linecap: butt; stroke-linejoin: miter; stroke-miterlimit: 4; fill: #060421; fill-rule: ; opacity: 1;">l</tspan><tspan x="-86.31" y="8.98" style="stroke: none; stroke-width: 0; stroke-dasharray: none; stroke-linecap: butt; stroke-linejoin: miter; stroke-miterlimit: 4; fill: #060421; fill-rule: ; opacity: 1;">u</tspan><tspan x="-58.67" y="8.98" style="stroke: none; stroke-width: 0; stroke-dasharray: none; stroke-linecap: butt; stroke-linejoin: miter; stroke-miterlimit: 4; fill: #060421; fill-rule: ; opacity: 1;">t</tspan><tspan x="-35.31" y="8.98" style="stroke: none; stroke-width: 0; stroke-dasharray: none; stroke-linecap: butt; stroke-linejoin: miter; stroke-miterlimit: 4; fill: #060421; fill-rule: ; opacity: 1;">i</tspan><tspan x="-24.53" y="8.98" style="stroke: none; stroke-width: 0; stroke-dasharray: none; stroke-linecap: butt; stroke-linejoin: miter; stroke-miterlimit: 4; fill: #060421; fill-rule: ; opacity: 1;">o</tspan><tspan x="9.41" y="8.98" style="stroke: none; stroke-width: 0; stroke-dasharray: none; stroke-linecap: butt; stroke-linejoin: miter; stroke-miterlimit: 4; fill: #060421; fill-rule: ; opacity: 1;">n</tspan><tspan x="38.93" y="8.98" style="stroke: none; stroke-width: 0; stroke-dasharray: none; stroke-linecap: butt; stroke-linejoin: miter; stroke-miterlimit: 4; fill: #060421; fill-rule: ; opacity: 1;"> </tspan><tspan x="50.92" y="8.98" style="stroke: none; stroke-width: 0; stroke-dasharray: none; stroke-linecap: butt; stroke-linejoin: miter; stroke-miterlimit: 4; fill: #060421; fill-rule: ; opacity: 1;">m</tspan><tspan x="85.02" y="8.98" style="stroke: none; stroke-width: 0; stroke-dasharray: none; stroke-linecap: butt; stroke-linejoin: miter; stroke-miterlimit: 4; fill: #060421; fill-rule: ; opacity: 1;">a</tspan><tspan x="112.81" y="8.98" style="stroke: none; stroke-width: 0; stroke-dasharray: none; stroke-linecap: butt; stroke-linejoin: miter; stroke-miterlimit: 4; fill: #060421; fill-rule: ; opacity: 1;">r</tspan><tspan x="138.44" y="8.98" style="stroke: none; stroke-width: 0; stroke-dasharray: none; stroke-linecap: butt; stroke-linejoin: miter; stroke-miterlimit: 4; fill: #060421; fill-rule: ; opacity: 1;">t</tspan></text>
 </g>
</svg>